<mxfile host="app.diagrams.net" modified="2022-03-24T17:21:24.154Z" agent="5.0 (Windows NT 10.0; Win64; x64) AppleWebKit/537.36 (KHTML, like Gecko) Chrome/99.0.4844.74 Safari/537.36" etag="S3Ej7j96_iEUermqNapl" version="14.7.7" type="github">
  <diagram id="mqD8b1I3s0amYCGlX9E-" name="Page-1">
    <mxGraphModel dx="2062" dy="1126" grid="1" gridSize="10" guides="1" tooltips="1" connect="1" arrows="1" fold="1" page="1" pageScale="1" pageWidth="850" pageHeight="1100" math="0" shadow="0">
      <root>
        <mxCell id="0" />
        <mxCell id="1" parent="0" />
        <mxCell id="2Qr0HQY8IQ-8e2fIZyJN-1" value="Employee" style="swimlane;childLayout=stackLayout;horizontal=1;startSize=30;horizontalStack=0;rounded=1;fontSize=14;fontStyle=0;strokeWidth=2;resizeParent=0;resizeLast=1;shadow=0;dashed=0;align=center;" vertex="1" parent="1">
          <mxGeometry x="70" y="210" width="160" height="120" as="geometry" />
        </mxCell>
        <mxCell id="2Qr0HQY8IQ-8e2fIZyJN-2" value="+firstName&#xa;+lastName" style="align=left;strokeColor=none;fillColor=none;spacingLeft=4;fontSize=12;verticalAlign=top;resizable=0;rotatable=0;part=1;" vertex="1" parent="2Qr0HQY8IQ-8e2fIZyJN-1">
          <mxGeometry y="30" width="160" height="90" as="geometry" />
        </mxCell>
        <mxCell id="2Qr0HQY8IQ-8e2fIZyJN-3" value="Survey" style="swimlane;childLayout=stackLayout;horizontal=1;startSize=30;horizontalStack=0;rounded=1;fontSize=14;fontStyle=0;strokeWidth=2;resizeParent=0;resizeLast=1;shadow=0;dashed=0;align=center;" vertex="1" parent="1">
          <mxGeometry x="370" y="240" width="160" height="120" as="geometry" />
        </mxCell>
        <mxCell id="2Qr0HQY8IQ-8e2fIZyJN-4" value="+id&#xa;+responses" style="align=left;strokeColor=none;fillColor=none;spacingLeft=4;fontSize=12;verticalAlign=top;resizable=0;rotatable=0;part=1;" vertex="1" parent="2Qr0HQY8IQ-8e2fIZyJN-3">
          <mxGeometry y="30" width="160" height="90" as="geometry" />
        </mxCell>
        <mxCell id="2Qr0HQY8IQ-8e2fIZyJN-5" value="SurveyResponses" style="swimlane;childLayout=stackLayout;horizontal=1;startSize=30;horizontalStack=0;rounded=1;fontSize=14;fontStyle=0;strokeWidth=2;resizeParent=0;resizeLast=1;shadow=0;dashed=0;align=center;" vertex="1" parent="1">
          <mxGeometry x="70" y="360" width="160" height="120" as="geometry" />
        </mxCell>
        <mxCell id="2Qr0HQY8IQ-8e2fIZyJN-6" value="+questionId&#xa;+responseId" style="align=left;strokeColor=none;fillColor=none;spacingLeft=4;fontSize=12;verticalAlign=top;resizable=0;rotatable=0;part=1;" vertex="1" parent="2Qr0HQY8IQ-8e2fIZyJN-5">
          <mxGeometry y="30" width="160" height="90" as="geometry" />
        </mxCell>
        <mxCell id="2Qr0HQY8IQ-8e2fIZyJN-9" style="edgeStyle=orthogonalEdgeStyle;rounded=0;orthogonalLoop=1;jettySize=auto;html=1;exitX=0;exitY=0;exitDx=0;exitDy=0;entryX=1;entryY=0.25;entryDx=0;entryDy=0;endArrow=none;endFill=0;" edge="1" parent="1" source="2Qr0HQY8IQ-8e2fIZyJN-4" target="2Qr0HQY8IQ-8e2fIZyJN-2">
          <mxGeometry relative="1" as="geometry">
            <Array as="points">
              <mxPoint x="330" y="270" />
              <mxPoint x="230" y="270" />
            </Array>
          </mxGeometry>
        </mxCell>
        <mxCell id="2Qr0HQY8IQ-8e2fIZyJN-11" style="edgeStyle=orthogonalEdgeStyle;rounded=0;orthogonalLoop=1;jettySize=auto;html=1;exitX=0;exitY=0.25;exitDx=0;exitDy=0;entryX=1;entryY=0.5;entryDx=0;entryDy=0;endArrow=ERoneToMany;endFill=0;" edge="1" parent="1" source="2Qr0HQY8IQ-8e2fIZyJN-4" target="2Qr0HQY8IQ-8e2fIZyJN-6">
          <mxGeometry relative="1" as="geometry">
            <Array as="points">
              <mxPoint x="340" y="293" />
              <mxPoint x="340" y="435" />
            </Array>
          </mxGeometry>
        </mxCell>
        <mxCell id="2Qr0HQY8IQ-8e2fIZyJN-12" value="Question" style="swimlane;childLayout=stackLayout;horizontal=1;startSize=30;horizontalStack=0;rounded=1;fontSize=14;fontStyle=0;strokeWidth=2;resizeParent=0;resizeLast=1;shadow=0;dashed=0;align=center;" vertex="1" parent="1">
          <mxGeometry x="680" y="240" width="160" height="120" as="geometry" />
        </mxCell>
        <mxCell id="2Qr0HQY8IQ-8e2fIZyJN-13" value="+id&#xa;+questionText&#xa;+responses&#xa;+answer" style="align=left;strokeColor=none;fillColor=none;spacingLeft=4;fontSize=12;verticalAlign=top;resizable=0;rotatable=0;part=1;" vertex="1" parent="2Qr0HQY8IQ-8e2fIZyJN-12">
          <mxGeometry y="30" width="160" height="90" as="geometry" />
        </mxCell>
        <mxCell id="2Qr0HQY8IQ-8e2fIZyJN-14" value="embedded" style="text;html=1;align=center;verticalAlign=middle;resizable=0;points=[];autosize=1;strokeColor=none;" vertex="1" parent="1">
          <mxGeometry x="260" y="250" width="70" height="20" as="geometry" />
        </mxCell>
        <mxCell id="2Qr0HQY8IQ-8e2fIZyJN-15" value="embedded" style="text;html=1;align=center;verticalAlign=middle;resizable=0;points=[];autosize=1;strokeColor=none;" vertex="1" parent="1">
          <mxGeometry x="260" y="410" width="70" height="20" as="geometry" />
        </mxCell>
        <mxCell id="2Qr0HQY8IQ-8e2fIZyJN-17" value="QuestionResponse" style="swimlane;childLayout=stackLayout;horizontal=1;startSize=30;horizontalStack=0;rounded=1;fontSize=14;fontStyle=0;strokeWidth=2;resizeParent=0;resizeLast=1;shadow=0;dashed=0;align=center;" vertex="1" parent="1">
          <mxGeometry x="680" y="410" width="160" height="120" as="geometry" />
        </mxCell>
        <mxCell id="2Qr0HQY8IQ-8e2fIZyJN-18" value="+id&#xa;+responseText" style="align=left;strokeColor=none;fillColor=none;spacingLeft=4;fontSize=12;verticalAlign=top;resizable=0;rotatable=0;part=1;" vertex="1" parent="2Qr0HQY8IQ-8e2fIZyJN-17">
          <mxGeometry y="30" width="160" height="90" as="geometry" />
        </mxCell>
        <mxCell id="2Qr0HQY8IQ-8e2fIZyJN-20" value="embedded" style="text;html=1;align=center;verticalAlign=middle;resizable=0;points=[];autosize=1;strokeColor=none;" vertex="1" parent="1">
          <mxGeometry x="850" y="460" width="70" height="20" as="geometry" />
        </mxCell>
        <mxCell id="2Qr0HQY8IQ-8e2fIZyJN-22" value="" style="curved=1;endArrow=ERoneToMany;html=1;endFill=0;" edge="1" parent="1">
          <mxGeometry width="50" height="50" relative="1" as="geometry">
            <mxPoint x="130" y="700" as="sourcePoint" />
            <mxPoint x="270" y="560" as="targetPoint" />
            <Array as="points">
              <mxPoint x="240" y="710" />
              <mxPoint x="170" y="540" />
            </Array>
          </mxGeometry>
        </mxCell>
        <mxCell id="2Qr0HQY8IQ-8e2fIZyJN-23" value="One-to-many" style="text;html=1;align=center;verticalAlign=middle;resizable=0;points=[];autosize=1;strokeColor=none;" vertex="1" parent="1">
          <mxGeometry x="200" y="580" width="90" height="20" as="geometry" />
        </mxCell>
        <mxCell id="2Qr0HQY8IQ-8e2fIZyJN-26" style="edgeStyle=orthogonalEdgeStyle;rounded=0;orthogonalLoop=1;jettySize=auto;html=1;exitX=1;exitY=0.5;exitDx=0;exitDy=0;entryX=0.994;entryY=0.411;entryDx=0;entryDy=0;entryPerimeter=0;endArrow=ERoneToMany;endFill=0;" edge="1" parent="1" source="2Qr0HQY8IQ-8e2fIZyJN-13" target="2Qr0HQY8IQ-8e2fIZyJN-18">
          <mxGeometry relative="1" as="geometry">
            <Array as="points">
              <mxPoint x="920" y="315" />
              <mxPoint x="920" y="477" />
            </Array>
          </mxGeometry>
        </mxCell>
        <mxCell id="2Qr0HQY8IQ-8e2fIZyJN-27" style="edgeStyle=orthogonalEdgeStyle;rounded=0;orthogonalLoop=1;jettySize=auto;html=1;exitX=1;exitY=0.75;exitDx=0;exitDy=0;entryX=0;entryY=0.25;entryDx=0;entryDy=0;endArrow=none;endFill=0;dashed=1;" edge="1" parent="1" source="2Qr0HQY8IQ-8e2fIZyJN-6" target="2Qr0HQY8IQ-8e2fIZyJN-13">
          <mxGeometry relative="1" as="geometry">
            <Array as="points">
              <mxPoint x="580" y="458" />
              <mxPoint x="580" y="293" />
            </Array>
          </mxGeometry>
        </mxCell>
        <mxCell id="2Qr0HQY8IQ-8e2fIZyJN-29" style="edgeStyle=orthogonalEdgeStyle;rounded=0;orthogonalLoop=1;jettySize=auto;html=1;exitX=0.75;exitY=1;exitDx=0;exitDy=0;entryX=0;entryY=0.75;entryDx=0;entryDy=0;endArrow=none;endFill=0;dashed=1;" edge="1" parent="1" source="2Qr0HQY8IQ-8e2fIZyJN-6" target="2Qr0HQY8IQ-8e2fIZyJN-18">
          <mxGeometry relative="1" as="geometry" />
        </mxCell>
        <mxCell id="2Qr0HQY8IQ-8e2fIZyJN-31" value="" style="curved=1;endArrow=none;html=1;endFill=0;dashed=1;" edge="1" parent="1">
          <mxGeometry width="50" height="50" relative="1" as="geometry">
            <mxPoint x="460" y="700" as="sourcePoint" />
            <mxPoint x="600" y="560" as="targetPoint" />
            <Array as="points">
              <mxPoint x="570" y="710" />
              <mxPoint x="500" y="540" />
            </Array>
          </mxGeometry>
        </mxCell>
        <mxCell id="2Qr0HQY8IQ-8e2fIZyJN-32" value="Loosely Related" style="text;html=1;align=center;verticalAlign=middle;resizable=0;points=[];autosize=1;strokeColor=none;" vertex="1" parent="1">
          <mxGeometry x="530" y="580" width="100" height="20" as="geometry" />
        </mxCell>
      </root>
    </mxGraphModel>
  </diagram>
</mxfile>
